<mxfile host="app.diagrams.net" modified="2021-04-22T02:51:49.159Z" agent="5.0 (Windows NT 10.0; Win64; x64) AppleWebKit/537.36 (KHTML, like Gecko) Chrome/90.0.4430.85 Safari/537.36" etag="CNihbikWaR4lQsSuPgmj" version="14.6.5" type="github">
  <diagram id="C5RBs43oDa-KdzZeNtuy" name="Page-1">
    <mxGraphModel dx="3556" dy="1037" grid="1" gridSize="10" guides="1" tooltips="1" connect="1" arrows="1" fold="1" page="1" pageScale="1" pageWidth="1654" pageHeight="1169" math="0" shadow="0">
      <root>
        <mxCell id="WIyWlLk6GJQsqaUBKTNV-0" />
        <mxCell id="WIyWlLk6GJQsqaUBKTNV-1" parent="WIyWlLk6GJQsqaUBKTNV-0" />
        <mxCell id="zkfFHV4jXpPFQw0GAbJ--0" value="&lt;b&gt;&amp;lt;&amp;lt;Interface&amp;gt;&amp;gt;&lt;br&gt;&lt;/b&gt;StaticObject" style="swimlane;fontStyle=0;align=center;verticalAlign=top;childLayout=stackLayout;horizontal=1;startSize=40;horizontalStack=0;resizeParent=1;resizeLast=0;collapsible=1;marginBottom=0;rounded=0;shadow=0;strokeWidth=1;html=1;" parent="WIyWlLk6GJQsqaUBKTNV-1" vertex="1">
          <mxGeometry x="-970" width="190" height="178" as="geometry">
            <mxRectangle x="230" y="140" width="160" height="26" as="alternateBounds" />
          </mxGeometry>
        </mxCell>
        <mxCell id="zkfFHV4jXpPFQw0GAbJ--1" value="typeID : unsigned int" style="text;align=left;verticalAlign=top;spacingLeft=4;spacingRight=4;overflow=hidden;rotatable=0;points=[[0,0.5],[1,0.5]];portConstraint=eastwest;" parent="zkfFHV4jXpPFQw0GAbJ--0" vertex="1">
          <mxGeometry y="40" width="190" height="26" as="geometry" />
        </mxCell>
        <mxCell id="zkfFHV4jXpPFQw0GAbJ--2" value="position : Vector3" style="text;align=left;verticalAlign=top;spacingLeft=4;spacingRight=4;overflow=hidden;rotatable=0;points=[[0,0.5],[1,0.5]];portConstraint=eastwest;rounded=0;shadow=0;html=0;" parent="zkfFHV4jXpPFQw0GAbJ--0" vertex="1">
          <mxGeometry y="66" width="190" height="26" as="geometry" />
        </mxCell>
        <mxCell id="zkfFHV4jXpPFQw0GAbJ--3" value="rotation : Vector3" style="text;align=left;verticalAlign=top;spacingLeft=4;spacingRight=4;overflow=hidden;rotatable=0;points=[[0,0.5],[1,0.5]];portConstraint=eastwest;rounded=0;shadow=0;html=0;" parent="zkfFHV4jXpPFQw0GAbJ--0" vertex="1">
          <mxGeometry y="92" width="190" height="26" as="geometry" />
        </mxCell>
        <mxCell id="W9H3QXqnwcrgemEN0hxj-0" value="collider : Collider*" style="text;align=left;verticalAlign=top;spacingLeft=4;spacingRight=4;overflow=hidden;rotatable=0;points=[[0,0.5],[1,0.5]];portConstraint=eastwest;rounded=0;shadow=0;html=0;" vertex="1" parent="zkfFHV4jXpPFQw0GAbJ--0">
          <mxGeometry y="118" width="190" height="26" as="geometry" />
        </mxCell>
        <mxCell id="zkfFHV4jXpPFQw0GAbJ--4" value="" style="line;html=1;strokeWidth=1;align=left;verticalAlign=middle;spacingTop=-1;spacingLeft=3;spacingRight=3;rotatable=0;labelPosition=right;points=[];portConstraint=eastwest;" parent="zkfFHV4jXpPFQw0GAbJ--0" vertex="1">
          <mxGeometry y="144" width="190" height="8" as="geometry" />
        </mxCell>
        <mxCell id="zkfFHV4jXpPFQw0GAbJ--5" value="+ serialize(bsInOut : BitStream&amp;)" style="text;align=left;verticalAlign=top;spacingLeft=4;spacingRight=4;overflow=hidden;rotatable=0;points=[[0,0.5],[1,0.5]];portConstraint=eastwest;fontStyle=2" parent="zkfFHV4jXpPFQw0GAbJ--0" vertex="1">
          <mxGeometry y="152" width="190" height="26" as="geometry" />
        </mxCell>
        <mxCell id="zkfFHV4jXpPFQw0GAbJ--6" value="&lt;b&gt;&amp;lt;&amp;lt;Interface&amp;gt;&amp;gt;&lt;br&gt;&lt;/b&gt;GameObject" style="swimlane;fontStyle=0;align=center;verticalAlign=top;childLayout=stackLayout;horizontal=1;startSize=40;horizontalStack=0;resizeParent=1;resizeLast=0;collapsible=1;marginBottom=0;rounded=0;shadow=0;strokeWidth=1;html=1;" parent="WIyWlLk6GJQsqaUBKTNV-1" vertex="1">
          <mxGeometry x="-1050" y="250" width="350" height="300" as="geometry">
            <mxRectangle x="130" y="380" width="160" height="26" as="alternateBounds" />
          </mxGeometry>
        </mxCell>
        <mxCell id="W9H3QXqnwcrgemEN0hxj-9" value="objectID : unsigned int" style="text;align=left;verticalAlign=top;spacingLeft=4;spacingRight=4;overflow=hidden;rotatable=0;points=[[0,0.5],[1,0.5]];portConstraint=eastwest;rounded=0;shadow=0;html=0;" vertex="1" parent="zkfFHV4jXpPFQw0GAbJ--6">
          <mxGeometry y="40" width="350" height="26" as="geometry" />
        </mxCell>
        <mxCell id="W9H3QXqnwcrgemEN0hxj-23" value="lastPacketTime : Time" style="text;align=left;verticalAlign=top;spacingLeft=4;spacingRight=4;overflow=hidden;rotatable=0;points=[[0,0.5],[1,0.5]];portConstraint=eastwest;rounded=0;shadow=0;html=0;" vertex="1" parent="zkfFHV4jXpPFQw0GAbJ--6">
          <mxGeometry y="66" width="350" height="26" as="geometry" />
        </mxCell>
        <mxCell id="W9H3QXqnwcrgemEN0hxj-8" value="mass : float" style="text;align=left;verticalAlign=top;spacingLeft=4;spacingRight=4;overflow=hidden;rotatable=0;points=[[0,0.5],[1,0.5]];portConstraint=eastwest;" vertex="1" parent="zkfFHV4jXpPFQw0GAbJ--6">
          <mxGeometry y="92" width="350" height="26" as="geometry" />
        </mxCell>
        <mxCell id="zkfFHV4jXpPFQw0GAbJ--7" value="velocity : Vector3" style="text;align=left;verticalAlign=top;spacingLeft=4;spacingRight=4;overflow=hidden;rotatable=0;points=[[0,0.5],[1,0.5]];portConstraint=eastwest;" parent="zkfFHV4jXpPFQw0GAbJ--6" vertex="1">
          <mxGeometry y="118" width="350" height="26" as="geometry" />
        </mxCell>
        <mxCell id="zkfFHV4jXpPFQw0GAbJ--8" value="angularVelocity : Vector3" style="text;align=left;verticalAlign=top;spacingLeft=4;spacingRight=4;overflow=hidden;rotatable=0;points=[[0,0.5],[1,0.5]];portConstraint=eastwest;rounded=0;shadow=0;html=0;" parent="zkfFHV4jXpPFQw0GAbJ--6" vertex="1">
          <mxGeometry y="144" width="350" height="26" as="geometry" />
        </mxCell>
        <mxCell id="zkfFHV4jXpPFQw0GAbJ--9" value="" style="line;html=1;strokeWidth=1;align=left;verticalAlign=middle;spacingTop=-1;spacingLeft=3;spacingRight=3;rotatable=0;labelPosition=right;points=[];portConstraint=eastwest;" parent="zkfFHV4jXpPFQw0GAbJ--6" vertex="1">
          <mxGeometry y="170" width="350" height="8" as="geometry" />
        </mxCell>
        <mxCell id="zkfFHV4jXpPFQw0GAbJ--10" value="+ serialize(bsInOut : BitStream&amp;)" style="text;align=left;verticalAlign=top;spacingLeft=4;spacingRight=4;overflow=hidden;rotatable=0;points=[[0,0.5],[1,0.5]];portConstraint=eastwest;fontStyle=2" parent="zkfFHV4jXpPFQw0GAbJ--6" vertex="1">
          <mxGeometry y="178" width="350" height="26" as="geometry" />
        </mxCell>
        <mxCell id="zkfFHV4jXpPFQw0GAbJ--11" value="+ applyForce(force : Vector3, position : Vector3)" style="text;align=left;verticalAlign=top;spacingLeft=4;spacingRight=4;overflow=hidden;rotatable=0;points=[[0,0.5],[1,0.5]];portConstraint=eastwest;" parent="zkfFHV4jXpPFQw0GAbJ--6" vertex="1">
          <mxGeometry y="204" width="350" height="26" as="geometry" />
        </mxCell>
        <mxCell id="W9H3QXqnwcrgemEN0hxj-10" value="+ resolveCollision(otherObject : StaticObject*, contact : Vector3, &#xa;collisionNormal : Vector3*, pen : float)" style="text;align=left;verticalAlign=top;spacingLeft=4;spacingRight=4;overflow=hidden;rotatable=0;points=[[0,0.5],[1,0.5]];portConstraint=eastwest;" vertex="1" parent="zkfFHV4jXpPFQw0GAbJ--6">
          <mxGeometry y="230" width="350" height="36" as="geometry" />
        </mxCell>
        <mxCell id="W9H3QXqnwcrgemEN0hxj-12" value="+ onCollision(otherObject : StaticObject*)" style="text;align=left;verticalAlign=top;spacingLeft=4;spacingRight=4;overflow=hidden;rotatable=0;points=[[0,0.5],[1,0.5]];portConstraint=eastwest;fontStyle=2" vertex="1" parent="zkfFHV4jXpPFQw0GAbJ--6">
          <mxGeometry y="266" width="350" height="26" as="geometry" />
        </mxCell>
        <mxCell id="zkfFHV4jXpPFQw0GAbJ--12" value="" style="endArrow=block;endSize=10;endFill=0;shadow=0;strokeWidth=1;rounded=0;edgeStyle=elbowEdgeStyle;elbow=vertical;dashed=1;" parent="WIyWlLk6GJQsqaUBKTNV-1" source="zkfFHV4jXpPFQw0GAbJ--6" target="zkfFHV4jXpPFQw0GAbJ--0" edge="1">
          <mxGeometry width="160" relative="1" as="geometry">
            <mxPoint x="-834" y="183" as="sourcePoint" />
            <mxPoint x="-834" y="183" as="targetPoint" />
          </mxGeometry>
        </mxCell>
        <mxCell id="W9H3QXqnwcrgemEN0hxj-7" style="edgeStyle=orthogonalEdgeStyle;rounded=0;orthogonalLoop=1;jettySize=auto;html=1;endArrow=block;endFill=0;endSize=10;dashed=1;" edge="1" parent="WIyWlLk6GJQsqaUBKTNV-1" source="W9H3QXqnwcrgemEN0hxj-1" target="zkfFHV4jXpPFQw0GAbJ--6">
          <mxGeometry relative="1" as="geometry" />
        </mxCell>
        <mxCell id="W9H3QXqnwcrgemEN0hxj-1" value="&amp;lt;&amp;lt;Interface&amp;gt;&amp;gt;&lt;br&gt;&lt;span style=&quot;font-weight: normal&quot;&gt;ClientObject&lt;/span&gt;" style="swimlane;fontStyle=1;align=center;verticalAlign=top;childLayout=stackLayout;horizontal=1;startSize=40;horizontalStack=0;resizeParent=1;resizeLast=0;collapsible=1;marginBottom=0;rounded=0;shadow=0;strokeWidth=1;html=1;" vertex="1" parent="WIyWlLk6GJQsqaUBKTNV-1">
          <mxGeometry x="-1055" y="600" width="360" height="110" as="geometry">
            <mxRectangle x="130" y="380" width="160" height="26" as="alternateBounds" />
          </mxGeometry>
        </mxCell>
        <mxCell id="W9H3QXqnwcrgemEN0hxj-4" value="" style="line;html=1;strokeWidth=1;align=left;verticalAlign=middle;spacingTop=-1;spacingLeft=3;spacingRight=3;rotatable=0;labelPosition=right;points=[];portConstraint=eastwest;" vertex="1" parent="W9H3QXqnwcrgemEN0hxj-1">
          <mxGeometry y="40" width="360" height="8" as="geometry" />
        </mxCell>
        <mxCell id="W9H3QXqnwcrgemEN0hxj-6" value="+ processInputMovement(inputData : BitStream&amp;) : PhysicsState" style="text;align=left;verticalAlign=top;spacingLeft=4;spacingRight=4;overflow=hidden;rotatable=0;points=[[0,0.5],[1,0.5]];portConstraint=eastwest;fontStyle=2" vertex="1" parent="W9H3QXqnwcrgemEN0hxj-1">
          <mxGeometry y="48" width="360" height="26" as="geometry" />
        </mxCell>
        <mxCell id="W9H3QXqnwcrgemEN0hxj-16" value="+ processInputAction(inputData : BitStream&amp;)" style="text;align=left;verticalAlign=top;spacingLeft=4;spacingRight=4;overflow=hidden;rotatable=0;points=[[0,0.5],[1,0.5]];portConstraint=eastwest;fontStyle=2" vertex="1" parent="W9H3QXqnwcrgemEN0hxj-1">
          <mxGeometry y="74" width="360" height="26" as="geometry" />
        </mxCell>
        <mxCell id="W9H3QXqnwcrgemEN0hxj-22" style="rounded=0;orthogonalLoop=1;jettySize=auto;html=1;endArrow=blockThin;endFill=1;endSize=10;" edge="1" parent="WIyWlLk6GJQsqaUBKTNV-1" source="W9H3QXqnwcrgemEN0hxj-17" target="W9H3QXqnwcrgemEN0hxj-1">
          <mxGeometry relative="1" as="geometry" />
        </mxCell>
        <mxCell id="W9H3QXqnwcrgemEN0hxj-71" style="edgeStyle=none;rounded=0;orthogonalLoop=1;jettySize=auto;html=1;endArrow=block;endFill=1;endSize=10;strokeColor=#000000;" edge="1" parent="WIyWlLk6GJQsqaUBKTNV-1" source="W9H3QXqnwcrgemEN0hxj-17" target="W9H3QXqnwcrgemEN0hxj-24">
          <mxGeometry relative="1" as="geometry" />
        </mxCell>
        <mxCell id="W9H3QXqnwcrgemEN0hxj-17" value="PhysicsState" style="swimlane;fontStyle=0;childLayout=stackLayout;horizontal=1;startSize=26;fillColor=none;horizontalStack=0;resizeParent=1;resizeParentMax=0;resizeLast=0;collapsible=1;marginBottom=0;html=1;" vertex="1" parent="WIyWlLk6GJQsqaUBKTNV-1">
          <mxGeometry x="-590" y="630" width="170" height="130" as="geometry" />
        </mxCell>
        <mxCell id="W9H3QXqnwcrgemEN0hxj-18" value="+ position : Vector3" style="text;strokeColor=none;fillColor=none;align=left;verticalAlign=top;spacingLeft=4;spacingRight=4;overflow=hidden;rotatable=0;points=[[0,0.5],[1,0.5]];portConstraint=eastwest;" vertex="1" parent="W9H3QXqnwcrgemEN0hxj-17">
          <mxGeometry y="26" width="170" height="26" as="geometry" />
        </mxCell>
        <mxCell id="W9H3QXqnwcrgemEN0hxj-19" value="+ rotation : Vector3" style="text;strokeColor=none;fillColor=none;align=left;verticalAlign=top;spacingLeft=4;spacingRight=4;overflow=hidden;rotatable=0;points=[[0,0.5],[1,0.5]];portConstraint=eastwest;" vertex="1" parent="W9H3QXqnwcrgemEN0hxj-17">
          <mxGeometry y="52" width="170" height="26" as="geometry" />
        </mxCell>
        <mxCell id="W9H3QXqnwcrgemEN0hxj-20" value="+ velocity : Vector3" style="text;strokeColor=none;fillColor=none;align=left;verticalAlign=top;spacingLeft=4;spacingRight=4;overflow=hidden;rotatable=0;points=[[0,0.5],[1,0.5]];portConstraint=eastwest;" vertex="1" parent="W9H3QXqnwcrgemEN0hxj-17">
          <mxGeometry y="78" width="170" height="26" as="geometry" />
        </mxCell>
        <mxCell id="W9H3QXqnwcrgemEN0hxj-21" value="+ angularVelocity : Vector3" style="text;strokeColor=none;fillColor=none;align=left;verticalAlign=top;spacingLeft=4;spacingRight=4;overflow=hidden;rotatable=0;points=[[0,0.5],[1,0.5]];portConstraint=eastwest;" vertex="1" parent="W9H3QXqnwcrgemEN0hxj-17">
          <mxGeometry y="104" width="170" height="26" as="geometry" />
        </mxCell>
        <mxCell id="W9H3QXqnwcrgemEN0hxj-54" style="edgeStyle=none;rounded=0;orthogonalLoop=1;jettySize=auto;html=1;endArrow=openThin;endFill=0;endSize=10;strokeColor=#000000;" edge="1" parent="WIyWlLk6GJQsqaUBKTNV-1" source="W9H3QXqnwcrgemEN0hxj-24" target="zkfFHV4jXpPFQw0GAbJ--0">
          <mxGeometry relative="1" as="geometry" />
        </mxCell>
        <mxCell id="W9H3QXqnwcrgemEN0hxj-55" value="staticObjects" style="edgeLabel;html=1;align=center;verticalAlign=middle;resizable=0;points=[];" vertex="1" connectable="0" parent="W9H3QXqnwcrgemEN0hxj-54">
          <mxGeometry x="0.8467" y="-3" relative="1" as="geometry">
            <mxPoint x="17" y="-24" as="offset" />
          </mxGeometry>
        </mxCell>
        <mxCell id="W9H3QXqnwcrgemEN0hxj-69" value="0..*" style="edgeLabel;html=1;align=center;verticalAlign=middle;resizable=0;points=[];" vertex="1" connectable="0" parent="W9H3QXqnwcrgemEN0hxj-54">
          <mxGeometry x="0.8905" relative="1" as="geometry">
            <mxPoint x="-5" y="9" as="offset" />
          </mxGeometry>
        </mxCell>
        <mxCell id="W9H3QXqnwcrgemEN0hxj-56" style="edgeStyle=none;rounded=0;orthogonalLoop=1;jettySize=auto;html=1;endArrow=openThin;endFill=0;endSize=10;strokeColor=#000000;" edge="1" parent="WIyWlLk6GJQsqaUBKTNV-1" source="W9H3QXqnwcrgemEN0hxj-24" target="zkfFHV4jXpPFQw0GAbJ--6">
          <mxGeometry relative="1" as="geometry" />
        </mxCell>
        <mxCell id="W9H3QXqnwcrgemEN0hxj-57" value="gameObjects" style="edgeLabel;html=1;align=center;verticalAlign=middle;resizable=0;points=[];" vertex="1" connectable="0" parent="W9H3QXqnwcrgemEN0hxj-56">
          <mxGeometry x="0.7947" y="2" relative="1" as="geometry">
            <mxPoint x="20" y="-23" as="offset" />
          </mxGeometry>
        </mxCell>
        <mxCell id="W9H3QXqnwcrgemEN0hxj-65" value="0..*" style="edgeLabel;html=1;align=center;verticalAlign=middle;resizable=0;points=[];" vertex="1" connectable="0" parent="W9H3QXqnwcrgemEN0hxj-56">
          <mxGeometry x="0.8604" y="1" relative="1" as="geometry">
            <mxPoint x="6" y="13" as="offset" />
          </mxGeometry>
        </mxCell>
        <mxCell id="W9H3QXqnwcrgemEN0hxj-58" style="edgeStyle=none;rounded=0;orthogonalLoop=1;jettySize=auto;html=1;endArrow=openThin;endFill=0;endSize=10;strokeColor=#000000;" edge="1" parent="WIyWlLk6GJQsqaUBKTNV-1" source="W9H3QXqnwcrgemEN0hxj-24" target="W9H3QXqnwcrgemEN0hxj-1">
          <mxGeometry relative="1" as="geometry" />
        </mxCell>
        <mxCell id="W9H3QXqnwcrgemEN0hxj-59" value="myClientObject" style="edgeLabel;html=1;align=center;verticalAlign=middle;resizable=0;points=[];" vertex="1" connectable="0" parent="W9H3QXqnwcrgemEN0hxj-58">
          <mxGeometry x="0.3007" y="-1" relative="1" as="geometry">
            <mxPoint x="-66" y="10" as="offset" />
          </mxGeometry>
        </mxCell>
        <mxCell id="W9H3QXqnwcrgemEN0hxj-67" value="1" style="edgeLabel;html=1;align=center;verticalAlign=middle;resizable=0;points=[];" vertex="1" connectable="0" parent="W9H3QXqnwcrgemEN0hxj-58">
          <mxGeometry x="0.8671" y="-1" relative="1" as="geometry">
            <mxPoint x="34" y="-2" as="offset" />
          </mxGeometry>
        </mxCell>
        <mxCell id="W9H3QXqnwcrgemEN0hxj-24" value="&amp;lt;&amp;lt;Interface&amp;gt;&amp;gt;&lt;br&gt;&lt;span style=&quot;font-weight: normal&quot;&gt;Client&lt;/span&gt;" style="swimlane;fontStyle=1;align=center;verticalAlign=top;childLayout=stackLayout;horizontal=1;startSize=37;horizontalStack=0;resizeParent=1;resizeParentMax=0;resizeLast=0;collapsible=1;marginBottom=0;html=1;" vertex="1" parent="WIyWlLk6GJQsqaUBKTNV-1">
          <mxGeometry x="-500" y="208" width="460" height="357" as="geometry" />
        </mxCell>
        <mxCell id="W9H3QXqnwcrgemEN0hxj-25" value="clientID : unsigned int" style="text;strokeColor=none;fillColor=none;align=left;verticalAlign=top;spacingLeft=4;spacingRight=4;overflow=hidden;rotatable=0;points=[[0,0.5],[1,0.5]];portConstraint=eastwest;" vertex="1" parent="W9H3QXqnwcrgemEN0hxj-24">
          <mxGeometry y="37" width="460" height="26" as="geometry" />
        </mxCell>
        <mxCell id="W9H3QXqnwcrgemEN0hxj-49" value="peerInterface : RakPeerInterface*" style="text;strokeColor=none;fillColor=none;align=left;verticalAlign=top;spacingLeft=4;spacingRight=4;overflow=hidden;rotatable=0;points=[[0,0.5],[1,0.5]];portConstraint=eastwest;" vertex="1" parent="W9H3QXqnwcrgemEN0hxj-24">
          <mxGeometry y="63" width="460" height="26" as="geometry" />
        </mxCell>
        <mxCell id="W9H3QXqnwcrgemEN0hxj-48" value="staticObjects : vector&lt;StaticObject*&gt;" style="text;strokeColor=none;fillColor=none;align=left;verticalAlign=top;spacingLeft=4;spacingRight=4;overflow=hidden;rotatable=0;points=[[0,0.5],[1,0.5]];portConstraint=eastwest;" vertex="1" parent="W9H3QXqnwcrgemEN0hxj-24">
          <mxGeometry y="89" width="460" height="26" as="geometry" />
        </mxCell>
        <mxCell id="W9H3QXqnwcrgemEN0hxj-47" value="gameObjects : unordered_map&lt;unsigned int, GameObject*&gt;" style="text;strokeColor=none;fillColor=none;align=left;verticalAlign=top;spacingLeft=4;spacingRight=4;overflow=hidden;rotatable=0;points=[[0,0.5],[1,0.5]];portConstraint=eastwest;" vertex="1" parent="W9H3QXqnwcrgemEN0hxj-24">
          <mxGeometry y="115" width="460" height="26" as="geometry" />
        </mxCell>
        <mxCell id="W9H3QXqnwcrgemEN0hxj-46" value="myClientObject : ClientObject*" style="text;strokeColor=none;fillColor=none;align=left;verticalAlign=top;spacingLeft=4;spacingRight=4;overflow=hidden;rotatable=0;points=[[0,0.5],[1,0.5]];portConstraint=eastwest;" vertex="1" parent="W9H3QXqnwcrgemEN0hxj-24">
          <mxGeometry y="141" width="460" height="26" as="geometry" />
        </mxCell>
        <mxCell id="W9H3QXqnwcrgemEN0hxj-64" value="inputCircularBuffer : circular_buffer&lt;PhysicsState&gt;" style="text;strokeColor=none;fillColor=none;align=left;verticalAlign=top;spacingLeft=4;spacingRight=4;overflow=hidden;rotatable=0;points=[[0,0.5],[1,0.5]];portConstraint=eastwest;" vertex="1" parent="W9H3QXqnwcrgemEN0hxj-24">
          <mxGeometry y="167" width="460" height="26" as="geometry" />
        </mxCell>
        <mxCell id="W9H3QXqnwcrgemEN0hxj-26" value="" style="line;strokeWidth=1;fillColor=none;align=left;verticalAlign=middle;spacingTop=-1;spacingLeft=3;spacingRight=3;rotatable=0;labelPosition=right;points=[];portConstraint=eastwest;" vertex="1" parent="W9H3QXqnwcrgemEN0hxj-24">
          <mxGeometry y="193" width="460" height="8" as="geometry" />
        </mxCell>
        <mxCell id="W9H3QXqnwcrgemEN0hxj-51" value="# physicsUpdate(deltaTime : float)" style="text;strokeColor=none;fillColor=none;align=left;verticalAlign=top;spacingLeft=4;spacingRight=4;overflow=hidden;rotatable=0;points=[[0,0.5],[1,0.5]];portConstraint=eastwest;" vertex="1" parent="W9H3QXqnwcrgemEN0hxj-24">
          <mxGeometry y="201" width="460" height="26" as="geometry" />
        </mxCell>
        <mxCell id="W9H3QXqnwcrgemEN0hxj-50" value="# processSystemMessage(packet : Packet*)" style="text;strokeColor=none;fillColor=none;align=left;verticalAlign=top;spacingLeft=4;spacingRight=4;overflow=hidden;rotatable=0;points=[[0,0.5],[1,0.5]];portConstraint=eastwest;" vertex="1" parent="W9H3QXqnwcrgemEN0hxj-24">
          <mxGeometry y="227" width="460" height="26" as="geometry" />
        </mxCell>
        <mxCell id="W9H3QXqnwcrgemEN0hxj-42" value="# getInput(bsInOut : BitStream&amp;)" style="text;strokeColor=none;fillColor=none;align=left;verticalAlign=top;spacingLeft=4;spacingRight=4;overflow=hidden;rotatable=0;points=[[0,0.5],[1,0.5]];portConstraint=eastwest;fontStyle=2" vertex="1" parent="W9H3QXqnwcrgemEN0hxj-24">
          <mxGeometry y="253" width="460" height="26" as="geometry" />
        </mxCell>
        <mxCell id="W9H3QXqnwcrgemEN0hxj-44" value="# staticObjectFactory(typeID : unsigned int, bsIn : BitStream&amp;) : StaticObject*" style="text;strokeColor=none;fillColor=none;align=left;verticalAlign=top;spacingLeft=4;spacingRight=4;overflow=hidden;rotatable=0;points=[[0,0.5],[1,0.5]];portConstraint=eastwest;fontStyle=2" vertex="1" parent="W9H3QXqnwcrgemEN0hxj-24">
          <mxGeometry y="279" width="460" height="26" as="geometry" />
        </mxCell>
        <mxCell id="W9H3QXqnwcrgemEN0hxj-45" value="# gameObjectFactory(typeID : unsigned int, bsIn : BitStream&amp;) : GameObject*" style="text;strokeColor=none;fillColor=none;align=left;verticalAlign=top;spacingLeft=4;spacingRight=4;overflow=hidden;rotatable=0;points=[[0,0.5],[1,0.5]];portConstraint=eastwest;fontStyle=2" vertex="1" parent="W9H3QXqnwcrgemEN0hxj-24">
          <mxGeometry y="305" width="460" height="26" as="geometry" />
        </mxCell>
        <mxCell id="W9H3QXqnwcrgemEN0hxj-43" value="# clientObjectFactory(bsIn : BitStream&amp;) : ClientObject*" style="text;strokeColor=none;fillColor=none;align=left;verticalAlign=top;spacingLeft=4;spacingRight=4;overflow=hidden;rotatable=0;points=[[0,0.5],[1,0.5]];portConstraint=eastwest;fontStyle=2" vertex="1" parent="W9H3QXqnwcrgemEN0hxj-24">
          <mxGeometry y="331" width="460" height="26" as="geometry" />
        </mxCell>
        <mxCell id="W9H3QXqnwcrgemEN0hxj-52" style="rounded=0;orthogonalLoop=1;jettySize=auto;html=1;endArrow=openThin;endFill=0;endSize=10;" edge="1" parent="WIyWlLk6GJQsqaUBKTNV-1" source="W9H3QXqnwcrgemEN0hxj-28" target="zkfFHV4jXpPFQw0GAbJ--0">
          <mxGeometry relative="1" as="geometry">
            <mxPoint x="-314" y="153.66071428571422" as="sourcePoint" />
            <mxPoint x="-694" y="108.3321428571428" as="targetPoint" />
          </mxGeometry>
        </mxCell>
        <mxCell id="W9H3QXqnwcrgemEN0hxj-53" value="staticObjects" style="edgeLabel;html=1;align=center;verticalAlign=middle;resizable=0;points=[];" vertex="1" connectable="0" parent="W9H3QXqnwcrgemEN0hxj-52">
          <mxGeometry x="0.9332" y="1" relative="1" as="geometry">
            <mxPoint x="-29" y="-15" as="offset" />
          </mxGeometry>
        </mxCell>
        <mxCell id="W9H3QXqnwcrgemEN0hxj-70" value="0..*" style="edgeLabel;html=1;align=center;verticalAlign=middle;resizable=0;points=[];" vertex="1" connectable="0" parent="W9H3QXqnwcrgemEN0hxj-52">
          <mxGeometry x="0.9134" y="1" relative="1" as="geometry">
            <mxPoint y="8" as="offset" />
          </mxGeometry>
        </mxCell>
        <mxCell id="W9H3QXqnwcrgemEN0hxj-60" style="edgeStyle=none;rounded=0;orthogonalLoop=1;jettySize=auto;html=1;endArrow=openThin;endFill=0;endSize=10;strokeColor=#000000;" edge="1" parent="WIyWlLk6GJQsqaUBKTNV-1" source="W9H3QXqnwcrgemEN0hxj-28" target="zkfFHV4jXpPFQw0GAbJ--6">
          <mxGeometry relative="1" as="geometry" />
        </mxCell>
        <mxCell id="W9H3QXqnwcrgemEN0hxj-61" value="gameObjects" style="edgeLabel;html=1;align=center;verticalAlign=middle;resizable=0;points=[];" vertex="1" connectable="0" parent="W9H3QXqnwcrgemEN0hxj-60">
          <mxGeometry x="0.8744" y="-1" relative="1" as="geometry">
            <mxPoint x="-24" y="-26" as="offset" />
          </mxGeometry>
        </mxCell>
        <mxCell id="W9H3QXqnwcrgemEN0hxj-68" value="0..*" style="edgeLabel;html=1;align=center;verticalAlign=middle;resizable=0;points=[];" vertex="1" connectable="0" parent="W9H3QXqnwcrgemEN0hxj-60">
          <mxGeometry x="0.8714" y="4" relative="1" as="geometry">
            <mxPoint x="-13" y="16" as="offset" />
          </mxGeometry>
        </mxCell>
        <mxCell id="W9H3QXqnwcrgemEN0hxj-62" style="edgeStyle=none;rounded=0;orthogonalLoop=1;jettySize=auto;html=1;endArrow=openThin;endFill=0;endSize=10;strokeColor=#000000;" edge="1" parent="WIyWlLk6GJQsqaUBKTNV-1" source="W9H3QXqnwcrgemEN0hxj-28" target="W9H3QXqnwcrgemEN0hxj-1">
          <mxGeometry relative="1" as="geometry" />
        </mxCell>
        <mxCell id="W9H3QXqnwcrgemEN0hxj-63" value="clientObjects" style="edgeLabel;html=1;align=center;verticalAlign=middle;resizable=0;points=[];" vertex="1" connectable="0" parent="W9H3QXqnwcrgemEN0hxj-62">
          <mxGeometry x="0.6532" y="2" relative="1" as="geometry">
            <mxPoint x="10" y="-19" as="offset" />
          </mxGeometry>
        </mxCell>
        <mxCell id="W9H3QXqnwcrgemEN0hxj-66" value="0..*" style="edgeLabel;html=1;align=center;verticalAlign=middle;resizable=0;points=[];" vertex="1" connectable="0" parent="W9H3QXqnwcrgemEN0hxj-62">
          <mxGeometry x="0.8125" y="-1" relative="1" as="geometry">
            <mxPoint x="-45" y="-8" as="offset" />
          </mxGeometry>
        </mxCell>
        <mxCell id="W9H3QXqnwcrgemEN0hxj-28" value="&amp;lt;&amp;lt;Interface&amp;gt;&amp;gt;&lt;br&gt;&lt;span style=&quot;font-weight: normal&quot;&gt;Server&lt;/span&gt;" style="swimlane;fontStyle=1;align=center;verticalAlign=top;childLayout=stackLayout;horizontal=1;startSize=37;horizontalStack=0;resizeParent=1;resizeParentMax=0;resizeLast=0;collapsible=1;marginBottom=0;html=1;" vertex="1" parent="WIyWlLk6GJQsqaUBKTNV-1">
          <mxGeometry x="-1654" y="270" width="450" height="305" as="geometry" />
        </mxCell>
        <mxCell id="W9H3QXqnwcrgemEN0hxj-38" value="peerInterface : RakPeerInterface*" style="text;strokeColor=none;fillColor=none;align=left;verticalAlign=top;spacingLeft=4;spacingRight=4;overflow=hidden;rotatable=0;points=[[0,0.5],[1,0.5]];portConstraint=eastwest;" vertex="1" parent="W9H3QXqnwcrgemEN0hxj-28">
          <mxGeometry y="37" width="450" height="26" as="geometry" />
        </mxCell>
        <mxCell id="W9H3QXqnwcrgemEN0hxj-39" value="staticObjects : vector&lt;StaticObject*&gt;" style="text;strokeColor=none;fillColor=none;align=left;verticalAlign=top;spacingLeft=4;spacingRight=4;overflow=hidden;rotatable=0;points=[[0,0.5],[1,0.5]];portConstraint=eastwest;" vertex="1" parent="W9H3QXqnwcrgemEN0hxj-28">
          <mxGeometry y="63" width="450" height="26" as="geometry" />
        </mxCell>
        <mxCell id="W9H3QXqnwcrgemEN0hxj-40" value="gameObjects : unordered_map&lt;unsigned int, GameObject*&gt;" style="text;strokeColor=none;fillColor=none;align=left;verticalAlign=top;spacingLeft=4;spacingRight=4;overflow=hidden;rotatable=0;points=[[0,0.5],[1,0.5]];portConstraint=eastwest;" vertex="1" parent="W9H3QXqnwcrgemEN0hxj-28">
          <mxGeometry y="89" width="450" height="26" as="geometry" />
        </mxCell>
        <mxCell id="W9H3QXqnwcrgemEN0hxj-41" value="clientObjects : unordered_map&lt;unsigned int, ClientObject*&gt;" style="text;strokeColor=none;fillColor=none;align=left;verticalAlign=top;spacingLeft=4;spacingRight=4;overflow=hidden;rotatable=0;points=[[0,0.5],[1,0.5]];portConstraint=eastwest;" vertex="1" parent="W9H3QXqnwcrgemEN0hxj-28">
          <mxGeometry y="115" width="450" height="26" as="geometry" />
        </mxCell>
        <mxCell id="W9H3QXqnwcrgemEN0hxj-30" value="" style="line;strokeWidth=1;fillColor=none;align=left;verticalAlign=middle;spacingTop=-1;spacingLeft=3;spacingRight=3;rotatable=0;labelPosition=right;points=[];portConstraint=eastwest;" vertex="1" parent="W9H3QXqnwcrgemEN0hxj-28">
          <mxGeometry y="141" width="450" height="8" as="geometry" />
        </mxCell>
        <mxCell id="W9H3QXqnwcrgemEN0hxj-31" value="+ destroyObject(objectID : unsigned int)" style="text;strokeColor=none;fillColor=none;align=left;verticalAlign=top;spacingLeft=4;spacingRight=4;overflow=hidden;rotatable=0;points=[[0,0.5],[1,0.5]];portConstraint=eastwest;" vertex="1" parent="W9H3QXqnwcrgemEN0hxj-28">
          <mxGeometry y="149" width="450" height="26" as="geometry" />
        </mxCell>
        <mxCell id="W9H3QXqnwcrgemEN0hxj-32" value="+ createObject(typeID : unsigned int, bsIn : BitStream&amp;)" style="text;strokeColor=none;fillColor=none;align=left;verticalAlign=top;spacingLeft=4;spacingRight=4;overflow=hidden;rotatable=0;points=[[0,0.5],[1,0.5]];portConstraint=eastwest;" vertex="1" parent="W9H3QXqnwcrgemEN0hxj-28">
          <mxGeometry y="175" width="450" height="26" as="geometry" />
        </mxCell>
        <mxCell id="W9H3QXqnwcrgemEN0hxj-33" value="# physicsUpdate(deltaTime : float)" style="text;strokeColor=none;fillColor=none;align=left;verticalAlign=top;spacingLeft=4;spacingRight=4;overflow=hidden;rotatable=0;points=[[0,0.5],[1,0.5]];portConstraint=eastwest;" vertex="1" parent="W9H3QXqnwcrgemEN0hxj-28">
          <mxGeometry y="201" width="450" height="26" as="geometry" />
        </mxCell>
        <mxCell id="W9H3QXqnwcrgemEN0hxj-34" value="# processSystemMessage(packet : Packet*)" style="text;strokeColor=none;fillColor=none;align=left;verticalAlign=top;spacingLeft=4;spacingRight=4;overflow=hidden;rotatable=0;points=[[0,0.5],[1,0.5]];portConstraint=eastwest;" vertex="1" parent="W9H3QXqnwcrgemEN0hxj-28">
          <mxGeometry y="227" width="450" height="26" as="geometry" />
        </mxCell>
        <mxCell id="W9H3QXqnwcrgemEN0hxj-35" value="# gameObjectFactory(typeID : unsigned int, bsIn : BitStream&amp;) : GameObject*" style="text;strokeColor=none;fillColor=none;align=left;verticalAlign=top;spacingLeft=4;spacingRight=4;overflow=hidden;rotatable=0;points=[[0,0.5],[1,0.5]];portConstraint=eastwest;fontStyle=2" vertex="1" parent="W9H3QXqnwcrgemEN0hxj-28">
          <mxGeometry y="253" width="450" height="26" as="geometry" />
        </mxCell>
        <mxCell id="W9H3QXqnwcrgemEN0hxj-37" value="# clientObjectFactory(clientID : unsigned int,bsIn : BitStream&amp;) : ClientObject*" style="text;strokeColor=none;fillColor=none;align=left;verticalAlign=top;spacingLeft=4;spacingRight=4;overflow=hidden;rotatable=0;points=[[0,0.5],[1,0.5]];portConstraint=eastwest;fontStyle=2" vertex="1" parent="W9H3QXqnwcrgemEN0hxj-28">
          <mxGeometry y="279" width="450" height="26" as="geometry" />
        </mxCell>
      </root>
    </mxGraphModel>
  </diagram>
</mxfile>
